# xmcd
#
# Track frame offsets:
#	150
#	17176
#	32431
#	51643
#	65836
#	81761
#	99124
#	115974
#	131636
#	148417
#
# Disc length: 2184 seconds
#
# Revision: 1
# Processed by: cddbd v1.5.2PL0 Copyright (c) Steve Scherf et al.
# Submitted via: audiograbber 1.83.01
#
DISCID=9008860a
DTITLE=Trace Adkins - Proud To Be Here
DYEAR=1900
DGENRE=Country
TTITLE0=Proud To Be Here
TTITLE1=Million Dollar View
TTITLE2=Days Like This
TTITLE3=Thats What You Get
TTITLE4=Just Fishin
TTITLE5=Its A Woman Thang
TTITLE6=Love Buzz
TTITLE7=Its Who You Know
TTITLE8=Its Who You Know
TTITLE9=Always Gonne Be That Way
EXTD=
EXTT0=
EXTT1=
EXTT2=
EXTT3=
EXTT4=
EXTT5=
EXTT6=
EXTT7=
EXTT8=
EXTT9=
PLAYORDER=
